<?xml version="1.0" encoding="utf-8"?>
<!-- Generator: Adobe Illustrator 22.0.0, SVG Export Plug-In . SVG Version: 6.00 Build 0)  -->
<svg version="1.1"
	 id="svg2" inkscape:version="0.47 r22583" sodipodi:docname="Nuevo documento 1" xmlns:cc="http://creativecommons.org/ns#" xmlns:dc="http://purl.org/dc/elements/1.1/" xmlns:inkscape="http://www.inkscape.org/namespaces/inkscape" xmlns:rdf="http://www.w3.org/1999/02/22-rdf-syntax-ns#" xmlns:sodipodi="http://sodipodi.sourceforge.net/DTD/sodipodi-0.dtd" xmlns:svg="http://www.w3.org/2000/svg"
	 xmlns="http://www.w3.org/2000/svg" xmlns:xlink="http://www.w3.org/1999/xlink" x="0px" y="0px" viewBox="0 0 729 381.9"
	 style="enable-background:new 0 0 729 381.9;" xml:space="preserve">
<style type="text/css">
	.st0{fill:#FFFFFF;}
</style>
<defs>
	
	
		<inkscape:perspective  id="perspective10" inkscape:persp3d-origin="372.04724 : 350.78739 : 1" inkscape:vp_x="0 : 526.18109 : 1" inkscape:vp_y="0 : 1000 : 0" inkscape:vp_z="744.09448 : 526.18109 : 1" sodipodi:type="inkscape:persp3d">
		</inkscape:perspective>
	
		<inkscape:perspective  id="perspective2845" inkscape:persp3d-origin="0.5 : 0.33333333 : 1" inkscape:vp_x="0 : 0.5 : 1" inkscape:vp_y="0 : 1000 : 0" inkscape:vp_z="1 : 0.5 : 1" sodipodi:type="inkscape:persp3d">
		</inkscape:perspective>
	
		<inkscape:perspective  id="perspective2875" inkscape:persp3d-origin="0.5 : 0.33333333 : 1" inkscape:vp_x="0 : 0.5 : 1" inkscape:vp_y="0 : 1000 : 0" inkscape:vp_z="1 : 0.5 : 1" sodipodi:type="inkscape:persp3d">
		</inkscape:perspective>
	
		<inkscape:perspective  id="perspective2973" inkscape:persp3d-origin="0.5 : 0.33333333 : 1" inkscape:vp_x="0 : 0.5 : 1" inkscape:vp_y="0 : 1000 : 0" inkscape:vp_z="1 : 0.5 : 1" sodipodi:type="inkscape:persp3d">
		</inkscape:perspective>
	
		<inkscape:perspective  id="perspective3035" inkscape:persp3d-origin="0.5 : 0.33333333 : 1" inkscape:vp_x="0 : 0.5 : 1" inkscape:vp_y="0 : 1000 : 0" inkscape:vp_z="1 : 0.5 : 1" sodipodi:type="inkscape:persp3d">
		</inkscape:perspective>
</defs>
<sodipodi:namedview  bordercolor="#666666" borderopacity="1.0" id="base" inkscape:current-layer="layer1" inkscape:cx="375.25907" inkscape:cy="179.43216" inkscape:document-units="px" inkscape:pageopacity="0.0" inkscape:pageshadow="2" inkscape:window-height="693" inkscape:window-maximized="1" inkscape:window-width="1024" inkscape:window-x="0" inkscape:window-y="24" inkscape:zoom="1" pagecolor="#ffffff" showgrid="false">
	</sodipodi:namedview>
<g id="layer1" transform="translate(-1.7592408,-12.749523)" inkscape:groupmode="layer" inkscape:label="Capa 1">
	<g id="g3073" transform="matrix(0.39715276,0,0,0.39715276,891.79089,119.12019)">
		<g id="g3041" transform="translate(-1138,100)">
			<path id="path3045" class="st0" d="M-986,521.8c-10.9-1.5-21.6-6.2-28.4-12.4c-2.1-1.9-4.2-3.7-4.6-3.8
				c-1.1-0.5-8.7-11.1-10.6-14.7c-2.1-4.1-3.2-7.8-4.5-14.5c-0.6-3.1-1-137.9-1-369.1c0-397.3-0.4-368.9,5.5-381
				c6.1-12.6,19.1-23.8,33-28.6l7-2.4H-622c312.6,0,368.2,0.2,372.5,1.4c15.9,4.5,32,18.5,37.6,32.8c3.9,9.9,3.8-1.3,3.8,378.7
				c0,332.5-0.1,365.5-1.6,371.5c-2.3,9.3-6.9,17.5-13.9,24.5c-6,6-10.5,9.9-10.5,9.1c0-0.3-1.6,0.6-3.6,2c-4.1,2.7-11,4.9-20.4,6.5
				C-265.7,523-977.2,523.1-986,521.8L-986,521.8z M-784.1,308.3c17.2-7.7,18.5-31.3,2.3-43.7c-3.2-2.4-6.2-4.6-6.8-4.8
				c-2.7-1.1-11.5-7.2-11.5-8c0-0.5-0.6-0.9-1.3-0.9c-1.8,0-6.4-5-7.6-8.1c-0.8-2-0.6-3.3,1.1-6c2.4-4,3.2-4.6,7.8-5.9
				c4.5-1.2,12,0.6,19.4,4.9c5.1,2.9,5.5,3,6,1.1c1-3.2,0.2-12.2-1.2-13.6c-2.8-2.8-12.3-5.5-19.7-5.5c-12.5,0-20.1,4.2-25,14
				c-1.8,3.5-2.2,5.7-1.9,10c0.8,10.1,3.6,14.6,13.7,21.9c21.7,15.8,22.2,16.3,22.5,23c0.2,4.4-0.2,5.2-3.4,8
				c-6.9,6.1-18.6,3.8-27.4-5.3c-2.4-2.5-4.7-4.2-5-3.6c-0.8,1.2-0.4,16.5,0.4,17.8c1.2,1.9,9.2,5.6,15.1,6.8
				C-798.4,312.2-791.3,311.5-784.1,308.3L-784.1,308.3z M-710.9,307.8c3.8-1.9,4.9-3.5,4.9-7.3c0-3.1-0.9-3.7-3.4-2.3
				c-3.2,1.8-4.6,1.8-5.6-0.1c-0.5-1-1-9.7-1-19.5c-0.1-21.8-1.1-25.2-8.8-28.6c-6.7-3-18.6-3-26.6,0c-8.4,3.2-9.5,4.5-8.9,11.1
				c0.3,3,0.7,5.6,0.9,5.8s1.7-0.6,3.4-1.8c4.5-3.3,10.5-5.1,17-5.1c4.7,0,6.2,0.4,7.9,2.2c1.1,1.2,2.1,2.8,2.2,3.5
				c0.5,5.9,0.8,5.7-9.1,9.1c-11.5,4-19.8,8.8-22.1,12.8c-1.1,1.8-1.8,5.2-1.8,8.6c-0.1,9.6,5.2,13.9,17.4,13.9
				c4.5,0,7.9-0.6,10.7-2c5-2.4,4.3-2.4,6.5-0.1C-724.1,311.1-717.6,311.1-710.9,307.8L-710.9,307.8z M-746.3,298
				c-4.9-5.4,1.9-13.5,13.4-15.8c3.9-0.8,4.9,0.6,5,6.3c0,4.4-1.6,10-2.6,9c-0.3-0.3-1.5,0.1-2.7,0.9
				C-736.4,300.5-744.3,300.3-746.3,298L-746.3,298z M-688,287.6c-0.1-24.2,0.1-24.7,8.3-28.2c4.4-1.8,4.8-1.8,9.2-0.2
				c6.9,2.6,7.5,4.5,7.6,23.8c0.1,9,0.4,18.8,0.8,21.8l0.7,5.5l5.4-0.1c3.5-0.1,5.6-0.6,6-1.5c0.3-0.8,0.4-12.2,0.1-25.4
				c-0.5-23.6-0.5-24.1-3-27.7c-3.5-5.2-9.2-7.8-17-7.8c-6.7,0-12.9,1.6-14.3,3.7c-1.1,1.8-3,1.6-4.3-0.5c-0.9-1.4-2.2-1.7-7.2-1.4
				l-6.1,0.3l0.2,29.7l0.2,29.7l5,0.5C-687.6,310.8-687.9,311.7-688,287.6L-688,287.6z M-568.2,307.6l4.3-2l2.3,2.1
				c1.7,1.6,3.5,2.1,7,2.1c8.2,0,13.8-4.2,12.9-9.8c-0.6-3.6-1.4-4-3.3-1.8c-0.7,0.8-2,1.5-3,1.5c-1.6,0-1.8-1.6-2.2-19.3
				c-0.4-21.6-1.2-24.7-7.6-29.6c-3.1-2.3-4.6-2.7-12.1-3.1c-8.2-0.3-18.6,1.3-19.7,3c-0.3,0.5-1,0.5-1.6,0.2
				c-0.6-0.4-0.8-0.2-0.4,0.4c0.4,0.6-0.2,1.4-1.3,1.7c-2,0.6-2.2,1.1-2.5,7.5c-0.3,6,0.2,6.2,6.7,2.9c10.1-5.1,20-5.6,23.4-1.2
				c0.7,1,1.4,3.4,1.4,5.4l0,3.6l-12.1,4.4c-13.2,4.8-17.8,8-20.5,14.3c-2.7,6.6-0.1,14.6,5.8,17.8
				C-585.2,311.1-575.2,310.8-568.2,307.6L-568.2,307.6z M-581.5,297.5c-2.5-3.8-1.6-7.6,2.5-10.2c5-3.3,13.6-6.5,14.6-5.4
				c0.5,0.5,0.7,4.1,0.5,8c-0.3,5.6-0.7,7.2-2,7.6c-0.9,0.3-2.4,0.9-3.4,1.4c-1,0.5-3.8,0.9-6.2,0.9
				C-579.1,299.9-580.3,299.4-581.5,297.5L-581.5,297.5z M-524.3,309.5c0.1-0.1,0.3-9.9,0.4-21.7l0.1-21.5l3.3-3.2
				c5.9-5.6,15.2-6.2,19.5-1.3c1.1,1.2,2,2.3,2.2,2.3c0.1,0.1,0.4,10.2,0.8,22.6l0.5,22.5h6.5h6.5v-24c0-22.2-0.2-24.3-2-27.5
				c-4.1-7.1-9.7-10-19-10c-6.1,0-10.8,1.4-15.2,4.6c-2,1.4-2.2,1.4-2.8-0.4c-0.5-1.5-1.9-2.1-6.2-2.6c-3.1-0.4-5.8-0.4-6.1-0.2
				c-0.7,0.7-0.2,59.7,0.5,60.9C-534.9,310.9-525.1,310.3-524.3,309.5L-524.3,309.5z M-416,264.4c0-34.8-0.3-44.5-1.3-44.8
				c-2.2-0.9-11.1,0.3-12,1.6c-0.4,0.7-0.8,7.1-0.7,14.2c0,7.1,0,13.5,0,14.2c0,0.9-1.1,0.8-3.8-0.4c-4.6-1.9-17.1-1.9-22.6,0
				c-4.9,1.7-12.1,8.7-15.2,14.8c-2,4-2.4,6.2-2.4,14.6c0,8.6,0.3,10.5,2.6,15.1c3.9,7.9,10.1,13.5,16.6,15.1
				c5.1,1.2,18.2,1.1,23.5-0.3c1.2-0.3,2.3-0.2,2.3,0.3c0,1.2,9,1.7,11.3,0.7C-416.1,308.8-416,305.7-416,264.4L-416,264.4z
				 M-445.5,299c-6.2-1.6-8.8-3.5-12.4-9.4c-2-3.3-2.3-4.8-2-12c0.4-9.5,2.6-13.5,9.3-16.9c4.3-2.2,13-2.7,14.8-0.9
				c0.6,0.6,1.9,1.1,2.8,1.1c2.6,0,2.9,2,2.9,19.1v16l-3.6,1.5C-438.3,299.4-441.9,299.9-445.5,299L-445.5,299z M-357.3,306.4
				l7.2-3.3l0.3-5.6c0.2-3.1,0.2-6,0-6.5c-0.4-1.1-5.3,0.5-6.2,2c-1.2,1.9-12,4.9-17.5,4.9c-3.1,0-7-0.6-8.8-1.4
				c-5.7-2.4-11.5-11.2-9-13.7c0.5-0.5,10.2-0.9,21.6-1c24.1-0.1,22.6,0.7,20.3-11.3c-1.1-5.8-2.3-8.8-4.9-12.2
				c-6.8-9-11.5-10.9-25-10.3c-8.3,0.4-9.6,0.7-13.7,3.5c-9.5,6.6-12.9,13.6-12.9,26.8c0,10.7,2.4,17.6,8.2,23.4
				C-388.7,311.1-371.7,313-357.3,306.4L-357.3,306.4z M-391.5,270.9c-0.3-0.5,0.4-2.8,1.7-5c3.2-5.6,10.3-8.6,16.2-6.9
				c5.6,1.6,10.6,7.3,10.6,11.9C-363,272.2-390.7,272.2-391.5,270.9L-391.5,270.9z M-605.3,308.8c3.2-1.1,4.2-4,3.4-10.3
				c-0.3-2.2-0.7-2.7-2-2.1c-2.7,1.2-13.5,1.6-15,0.6c-0.7-0.5-1.7-2.6-2.3-4.8c-0.9-3.9-1.1-28.8-0.2-31.1c0.3-0.9,3.3-1.3,9.9-1.3
				h9.5l-0.3-4.8l-0.3-4.8l-9.5-0.5l-9.5-0.5l-0.1-4c-0.2-8.2-0.4-9.5-1.4-9.5c-0.6,0-3.6,2.8-6.8,6.1s-7.6,8.1-10,10.6
				c-6,6.2-5.6,7.9,1.6,7.3c1.3-0.1,2.7,0.4,3.2,1.1s0.8,9.3,0.9,19.1c0.1,20.8,1,24.2,6.8,27.6c2.9,1.7,5.4,2.2,11.3,2.2
				C-611.7,309.9-606.9,309.4-605.3,308.8L-605.3,308.8z M-325.4,290.9c0.3-20.6,1.1-23.8,6.6-28.4c3.8-3.2,9.7-3.3,14-0.4
				c2.8,1.9,4.8,2.3,4.8,1c0-0.5,1.1-2.1,2.5-3.6s2.5-3.5,2.5-4.5c0-3.6-6.6-7.1-13.3-7.1c-5.1,0-8.6,1.7-12.9,6.4
				c-1.8,2-3.6,3.6-4,3.6s-0.6-1.9-0.5-4.1l0.2-4.1l-4-0.3c-2.2-0.2-5.1-0.1-6.5,0.1l-2.5,0.5l0.2,29.2c0.1,16.1,0.2,29.6,0.3,30
				c0,0.4,2.8,0.7,6.2,0.5l6.1-0.3L-325.4,290.9L-325.4,290.9z M-925.9,110.4c0-23.6,0-44.3,0-45.8l0-2.8l-6.8,0.3l-6.8,0.3
				l-0.3,43.5c-0.2,23.9,0,44.5,0.3,45.8c0.5,2.1,1,2.3,7.1,2l6.5-0.3L-925.9,110.4L-925.9,110.4z M-895.9,152.5
				c0-0.6,0-10.3,0-21.6c-0.1-19.6,0-20.7,2-23.3c4.8-6.1,15.4-7.8,20.7-3.3l2.8,2.4l0.5,23.3l0.5,23.3l5.3,0.3
				c3.1,0.2,5.9-0.2,6.7-0.9c1.1-0.9,1.4-5.1,1.4-20.9c0-10.9-0.5-22.2-1-25.1c-1.2-6.4-5-11.6-10.5-14.3c-7.3-3.6-19.5-2-25.8,3.3
				c-1.6,1.4-1.8,1.3-2.4-0.6c-0.6-2.3-4.9-3.7-9.5-3.1l-2.4,0.3l-0.3,29.5c-0.1,16.2,0,30.1,0.2,30.8
				C-906.9,154.2-896,154.1-895.9,152.5L-895.9,152.5z M-808.3,152.5c3.9-0.8,6.3-0.9,6.6-0.3c0.5,1.6,11.9,1.9,12.9,0.4
				c0.9-1.5,1.1-85.1,0.2-88.5c-0.5-2-1.2-2.3-6.4-2.3c-7,0-6.7-0.7-6.9,17.2c-0.1,7.3-0.3,13.4-0.6,13.7c-0.2,0.2-1.9-0.2-3.7-0.9
				c-5.3-2.2-16.9-1.5-23.2,1.4c-6.9,3.2-10.7,7-14.1,14.1c-2.4,5-2.7,7-2.7,14.7c0.1,7.5,0.5,9.8,2.7,14.6
				c4.3,9.1,10.2,13.9,19.2,15.9C-816.8,154.1-815.7,154.1-808.3,152.5L-808.3,152.5z M-821.7,140.8c-1.2-0.5-2.3-1.3-2.3-1.9
				s-0.9-1.3-2.1-1.6c-4.8-1.5-7.4-14.4-4.8-24c1.1-4.1,5.6-9,9.7-10.6c3.9-1.5,13.1-1,16.3,0.8l2.9,1.7v16.6v16.6l-2.9,1.7
				C-808.1,142-817.8,142.4-821.7,140.8z M-746.3,152.4c2.8-0.8,5.6-2.2,6.3-3c1.9-2.3,3.7-1.8,4.9,1.6c1,3,1.2,3,6.8,2.8l5.8-0.3
				v-30.5V92.4l-6-0.1c-3.3,0-6.3,0.4-6.7,1c-0.4,0.6-0.7,10.6-0.8,22.3l0,21.2l-4.3,2.5c-3.2,1.9-5.7,2.5-9.8,2.5
				c-10.2,0-11.9-4.5-11.9-31.1l0-18.6h-6h-6l-0.6,3.5c-0.4,1.9-0.4,12.5-0.2,23.6c0.5,22,0.8,23.5,6.8,29.2
				C-762.8,153.4-754.7,154.9-746.3,152.4L-746.3,152.4z M-678.5,150.3c6.5-3.3,8.8-7.3,8.7-15.2c-0.1-7.7-3.2-11.3-15.6-17.7
				c-9.6-5-14.9-9.5-14-11.9c0.3-0.7,2-1.8,3.9-2.5c3.9-1.4,10.3-0.2,16.9,3.1c5.6,2.8,6.6,2,6.4-4.9l-0.2-5.8l-4.8-2.3
				c-3.8-1.8-6.6-2.3-13.6-2.3c-14.4-0.1-20,4-21.1,15.3c-0.5,5.2-0.3,6.4,1.9,9.6c3.2,4.8,5.6,6.7,11.1,9.3
				c12.8,5.9,16,8.1,16,10.9c0,2.1-1.5,3.3-5.8,4.8c-4.1,1.4-10.2,0.2-18-3.5c-4.3-2-5.6-2.3-6.3-1.2c-0.9,1.3-0.9,9.2-0.1,11.5
				c0.4,1.2,10.3,4.8,15.2,5.6C-691.7,154.1-683.7,153-678.5,150.3L-678.5,150.3z M-628.3,151.7c2.4-1.2,2.8-2,3.3-7.1
				c0.6-6.5,0-6.9-6.5-4.2c-2.3,0.9-4.9,1.3-6.7,0.9c-5.1-1.1-5.8-3.4-5.9-20c-0.1-8.2-0.1-15.6,0-16.2c0-0.9,2.5-1.3,9-1.3h9V98
				v-5.9l-8.7-0.2c-4.8-0.1-8.9-0.4-9.2-0.7c-0.3-0.3-0.4-2.5-0.2-4.9c0.1-2.5-0.3-5.4-0.9-6.5c-1.1-2-1.2-2-4.2,1.2
				c-9.9,10.6-17.8,20-17.8,21.3c0,1.1,1.1,1.5,4.5,1.5c3.6,0,4.5,0.3,4.5,1.8c0,1,0.1,9.2,0.3,18.2c0.3,15,0.5,16.9,2.6,21.3
				c3.1,6.4,7.8,8.6,17.3,8.1C-634,153.1-629.8,152.4-628.3,151.7L-628.3,151.7z M-603.9,135.4c0.6-17.9,0.8-19.7,2.8-24.5
				c2.7-6.4,8.8-9.7,14.3-7.8c1.8,0.6,3.8,1.8,4.4,2.6c1.6,2.2,3.9,0.8,7-4c3.1-4.9,2.7-6.3-2.8-9.1c-4.6-2.4-10.5-2.8-14-1.1
				c-3.7,1.8-9.8,7.5-9.8,9.1c0,0.7-0.5,1-1.1,0.6c-0.6-0.4-0.9-2.1-0.6-4c0.7-4.5-1.1-5.8-6.9-5.2c-2.5,0.3-4.7,0.7-5,0.9
				c-0.3,0.3-0.8,52.9-0.5,59.5c0,0.7,2.1,1.1,5.8,1l5.8-0.1C-604.5,153.4-603.9,135.4-603.9,135.4z M-554.2,124
				c0.2-22.1,0-29.7-0.9-30.8c-0.9-1.1-2.8-1.4-6.8-1.2l-5.6,0.3l-0.3,29.4c-0.2,21.4,0.1,29.8,0.9,30.8c0.8,1,2.9,1.3,6.8,1.1
				l5.6-0.3L-554.2,124L-554.2,124z M-513.6,150.4c4.7-2.3,4.9-2.3,5.4-0.5c0.7,2.8,6.8,4.1,12,2.6c5.2-1.5,9.7-5.3,8.9-7.3
				c-0.3-0.8-0.6-2.4-0.6-3.6c0-1.9-0.1-2-2.5-0.4c-5.4,3.5-5.5,3.1-5.7-15.1c-0.1-9.2-0.1-17-0.1-17.3c0-0.3-0.6-2.8-1.4-5.4
				c-2.8-9.2-8.1-12.4-20.9-12.6c-8-0.1-16.5,2.1-20.9,5.4c-1.8,1.3-3.4,9.5-2.4,12.2c0.5,1.3,1.5,1.1,6.4-1.4
				c8.6-4.3,14.3-5.6,19-4c4.8,1.6,6.2,3.5,6.3,8.1c0,3.7,0,3.7-6.7,5.9c-19.9,6.5-26.2,11.8-26.5,21.8c-0.1,5.5,1.6,9.1,5.8,11.8
				C-531.5,154.4-521.7,154.3-513.6,150.4L-513.6,150.4z M-524.4,142.8c-3.6-1.1-4.5-2.5-4.6-6.6c0-2.4,0.7-3.7,3-5.3
				c1.7-1.2,3.7-2.3,4.5-2.4c0.8-0.1,1.8-0.6,2.2-1c1.5-1.5,7.6-3.6,8.4-2.9c0.7,0.7,1.2,8.5,1,13.5
				C-510.1,141.4-519.2,144.4-524.4,142.8z M-469.9,112.6c0.1-22.7,0.1-42.1,0.2-43.2c0.1-7.6,0.2-7.5-6.3-7.5c-5.9,0-6,0.1-6,2.8
				c0,3.2,0,88.6,0,89c0,0.1,2.7,0.3,6,0.3h6L-469.9,112.6L-469.9,112.6z M-384.3,151.8c1.9-0.7,3-0.6,4.3,0.6
				c1.2,1,3.4,1.5,6.9,1.4l5.1-0.2l0-4.6c0-13.9,0-82.9,0-84.8c0-2.1-0.5-2.3-5.5-2.3c-3,0-5.7,0.4-6,0.9c-0.3,0.5-0.6,7.3-0.6,15.2
				c-0.1,7.9-0.3,14.7-0.5,15.1c-0.2,0.4-2.1,0-4.2-0.9c-2.4-1-6.5-1.6-11.2-1.6c-6.2,0-8.5,0.5-13,2.8c-3,1.5-6.2,3.5-7,4.4
				c-7.8,8.7-11.1,19.2-9.2,29.4c2.6,14.1,10.7,23.1,23.2,25.8C-398,153.9-388,153.2-384.3,151.8L-384.3,151.8z M-402.8,139.7
				c-1.8-1.2-4.4-4.1-5.9-6.5c-5.1-8.8-2.7-23.1,4.9-28.5c4.2-3,13.3-3.6,19.2-1.4l4.4,1.7l0.1,15.5c0.1,9.7-0.3,16.2-1,17.5
				c-0.6,1.1-1.4,1.8-1.7,1.5c-0.3-0.3-1.2,0.1-2,0.9C-387,142.8-398.7,142.3-402.8,139.7L-402.8,139.7z M-313,151.7
				c1.9-0.6,5.6-1.9,8.3-3l4.7-2v-6.9c0-3.8-0.2-6.9-0.5-6.9s-3.1,1.4-6.2,3.1c-7.1,3.8-15.8,6.2-19.7,5.4
				c-8.9-1.8-15.1-7.7-15-14.4c0-2.9-2.5-2.6,25.1-2.8l18.1-0.2l-0.3-4.8c-0.7-12.7-6.4-21.9-16.2-26.3c-5.2-2.3-16.6-2.8-22.9-0.9
				c-5.2,1.6-12.3,8.1-15.7,14.3c-2.3,4.2-2.6,6.1-2.6,13.9c0,10.1,1.1,14.2,5.4,20.8C-343.8,151.5-327.9,156.1-313,151.7z
				 M-341.6,114.7c-0.3-0.5,0.4-2.9,1.6-5.2c5.1-10.2,21.3-10.2,25.6,0c2.6,6.2,2.1,6.4-13.1,6.3
				C-334.9,115.7-341.3,115.2-341.6,114.7L-341.6,114.7z M-555.2,79.8c1.4-1.5,1.7-2.9,1.3-5.7c-0.5-3.1-1.2-3.9-4.4-5.1
				c-3.7-1.4-3.9-1.4-6.7,1.4c-3.3,3.2-3.7,5.9-1.4,9.2C-564.4,82.6-557.9,82.7-555.2,79.8z M-867.6-4.1c11.8-3,19.5-8.9,24.3-18.7
				l2.9-5.8l0.3-31.2c0.2-18.2-0.1-31.9-0.6-32.9c-0.7-1.2-2.5-1.7-7-1.8c-5.8-0.1-6.1,0-6.4,2.4c-0.2,1.4-0.5,15.3-0.6,31
				c-0.2,15.7-0.7,29.9-1.3,31.6c-1.2,3.7-7.6,9.9-12.4,11.9c-4.5,1.9-17.1,1.8-22.6-0.1c-2.4-0.8-6.2-3.4-8.5-5.8
				c-5.8-5.9-6.6-11.1-6.4-44.4c0.1-14.6,0-26.6-0.2-26.9c-0.2-0.2-3.3-0.1-6.9,0.3l-6.5,0.7v32.5v32.5l3.2,6.6
				c2.6,5.3,4.4,7.4,9.1,10.7C-894.6-2.5-882.5-0.3-867.6-4.1L-867.6-4.1z M-816.5-4.1h4.3l0.1-22.2l0.1-22.2l3.2-2.8
				c4.1-3.5,8.8-4.9,13-3.7c1.8,0.5,3.5,0.8,3.7,0.7c0.3-0.1,1.5,1.2,2.6,3c1.8,2.7,2.2,5.2,2.8,17.4c0.4,7.8,0.5,17.5,0.3,21.5
				c-0.2,4-0.1,7.6,0.2,8c0.9,1.2,12.1,1,12.2-0.2c0-0.6,0-11.5,0-24.4c-0.1-26.3-0.6-28.4-7.7-33.9c-3.2-2.4-4.8-2.9-11.5-3.2
				c-7.2-0.3-8.2-0.1-13.3,2.7c-5.4,3.1-5.5,3.1-5.8,0.9c-0.2-1.2-0.7-2.1-1.1-2c-0.4,0.1-3.5,0.3-6.8,0.3h-6l0.1,29.9
				c0.1,30.5,0.2,31.6,3.8,30.5C-821.4-3.9-818.9-4.1-816.5-4.1L-816.5-4.1z M-746.3-34l0.2-30l-6.2-0.4c-3.4-0.2-6.6-0.2-7,0
				c-0.8,0.4-1.1,59.6-0.3,60.3c0.2,0.2,3.3,0.3,6.8,0.2l6.3-0.2C-746.5-4-746.3-34-746.3-34z M-626.7-8l6.7-3.1l0-5.3
				c0-7.5-0.6-8-6-5.2c-8.5,4.4-9.5,4.7-17.5,5.2c-7.2,0.4-8.4,0.2-11.4-1.9c-4.4-3-6.9-6.5-7.7-10.6c-0.6-3.2-0.6-3.3,3.2-3.3
				c2.1,0,11.8-0.1,21.4-0.3l17.5-0.2l0.3-5.8c0.4-6.9-1.9-13.7-6-18.2c-1.5-1.7-2.8-3.3-2.8-3.7c0-0.4-2.3-1.8-5.2-3.3
				c-4.3-2.1-6.6-2.6-13-2.6c-11.2,0-15.2,1.5-21.9,8.1c-5.3,5.2-5.8,6.2-7.4,13.5c-1.9,8.6-1.3,16.2,1.9,23.9
				c0.9,2.2,1.5,4,1.4,4.1c-0.7,0.3,7,6.6,11.2,9.1C-653.6-2.4-638.4-2.7-626.7-8L-626.7-8z M-661.9-45.3c3.5-12,20.7-13.7,26.5-2.6
				c3,5.7,2.8,5.8-13,5.8h-14.4L-661.9-45.3L-661.9-45.3z M-596.4-4.4c0.4-0.4,0.7-8,0.5-16.8c-0.2-12.7,0-17,1.4-21.2
				c3.5-11,10-14.3,19-9.7c4.5,2.3,5.6,1.7,8.9-4.4c1.6-3,1.7-3.8,0.6-5.1c-3.3-3.9-14.5-5.9-19.3-3.3c-2.8,1.5-8.7,7.6-8.7,9.2
				c0,0.6-0.5,0.4-1.1-0.6c-0.6-1-0.7-3.1-0.4-4.7c0.4-1.6,0.3-3-0.2-3c-8.1-0.6-12.3-0.3-12.4,0.8c0,1.7,0,56.9,0,58.5
				C-608-3.5-597.7-3.1-596.4-4.4L-596.4-4.4z M-496.5-34.2v-30.4l-6.5,0.1l-6.5,0.1l-0.3,26.9c-0.2,14.8,0,28.3,0.3,30
				c0.6,3.1,0.8,3.2,5.8,3.6c2.9,0.2,5.7,0.3,6.2,0.2C-496.9-3.8-496.5-14.7-496.5-34.2z M-444-5.6c0.6-0.3,1.6,0,2.3,0.7
				c0.9,0.9,3.3,1.2,7.5,1l6.2-0.3v-44.4v-44.4l-2.3-0.8c-2-0.7-4.6-0.8-10.3-0.3c-1.3,0.1-1.5,2.5-1.5,15c0,8.2-0.3,15.1-0.6,15.4
				s-1.8-0.1-3.3-0.8c-1.7-0.9-5.8-1.4-11-1.4c-7.5,0-9,0.3-14.3,3.2c-10.2,5.5-14.8,14.4-14.8,28.7c0,6.9,0.5,9.6,2.3,13.6
				c4.5,9.7,12.5,15.4,23.1,16.4C-454.7-3.6-446-4.4-444-5.6L-444-5.6z M-458.1-15.1c-8.6-1.7-13.9-9.3-13.9-19.9
				c0-3.4,0.6-7.7,1.4-9.6c4-9.5,15.8-13.8,25.6-9.2l2.5,1.2l0.3,17.2l0.3,17.2l-2.8,1.4C-448.5-14.9-453.7-14.2-458.1-15.1z
				 M-389.4-5.9c1.2-0.6,2.4-0.9,2.8-0.5S-386-6.3-386-7c0-1.8,2.1-1.4,4.6,0.9c3.2,3,10.2,2.8,15.7-0.4c3.6-2.1,4.2-3,4.1-5.3
				c-0.3-5.6-0.3-5.5-2.9-3.7c-5.1,3.3-5.5,2-5.5-16.1c0-18.6-0.9-23.7-5-28.7c-3.7-4.5-9.3-6.1-20.2-5.6c-7,0.3-9.4,0.9-14.3,3.5
				l-5.9,3.1l-0.3,6.1c-0.4,7.2,0.1,7.4,7.1,3c4.2-2.7,6.1-3.2,12.7-3.6c7.1-0.4,7.9-0.3,9.9,1.9c1.4,1.5,2.2,3.6,2.2,6
				c0,3.6-0.1,3.7-6.3,5.9c-13.7,4.8-15.4,5.6-19.5,8.5c-7.3,5.1-9.9,13.8-6.2,20.6c1.4,2.6,6.7,6.2,10.3,6.9
				C-401.8-3.4-392.1-4.4-389.4-5.9L-389.4-5.9z M-398.8-14.6c-4.2-1.8-5.9-5.9-3.8-9.1c1.5-2.3,12.1-7.9,16-8.6
				c1.8-0.3,2,0.3,2.3,7.2l0.3,7.5l-3.8,1.6C-393.8-13.3-395.3-13.2-398.8-14.6z M-318.1-5.6c0.7-0.4,1.6-0.3,1.9,0.2
				c0.4,0.6,3.6,1.2,7.1,1.4l6.5,0.4l0.3-45.2c0.2-39.8,0.1-45.3-1.2-45.4c-5.7-0.5-8.3-0.4-10.3,0.3c-2.2,0.8-2.3,1.2-2.3,15.1
				c0,7.9-0.3,14.6-0.6,14.9s-1.8-0.1-3.3-0.8c-3.3-1.7-16.5-1.9-21.3-0.2c-8.2,2.8-15.9,11.1-18,19.2c-1.6,6.5-0.8,21.2,1.5,25.6
				c4.9,9.3,11.4,14.2,20.8,15.8C-332.1-3.5-320.1-4.4-318.1-5.6L-318.1-5.6z M-331.5-15.1c-4.9-1.2-8.9-3.7-11.4-7.2
				c-1.9-2.6-2.5-4.8-2.8-10.8c-0.7-12.6,3.8-19.7,13.9-22c4.6-1,12.1,0,14.6,2.1c1,0.8,1.3,5.4,1.3,18V-18l-3.3,1.3
				C-324-14.8-328.1-14.2-331.5-15.1z M-705.3-5.9c0.8-2.4,17.7-40,21.9-48.9c1.9-3.9,3.4-7.6,3.4-8.1c0-1.5-1.8-1.9-7.8-1.7
				l-5.3,0.1l-7.9,18.4c-4.4,10.1-7.9,18.5-7.9,18.7c0,0.2-0.4,0.3-0.9,0.3c-0.5,0-1.9-2.4-3.1-5.3c-1.2-2.9-4-9.1-6.2-13.7
				s-4.7-10.3-5.5-12.5c-0.9-2.2-1.9-4.4-2.3-4.8c-0.9-1-11.5-1.6-13-0.6c-1.4,0.9,0.7,5.9,20,46.2l6.6,13.7l3.8,0
				C-707-4.1-705.8-4.6-705.3-5.9L-705.3-5.9z M-530.4-6.3c8.2-4.1,10.8-9.1,9.4-18.3c-1-6.3-4.5-9.7-16.7-16
				c-11.1-5.7-14.4-9.5-10.8-12.1c3-2.2,11.2-1.7,18.1,1.1c3.3,1.4,6.1,2.5,6.3,2.5c0.1,0,0.3-2.9,0.3-6.4v-6.4l-4.9-2.1
				c-7.5-3.2-20.8-3-26.6,0.4c-10.1,5.9-10.8,18.8-1.5,27.3c2.5,2.3,13.9,8.2,15.8,8.2c1.4,0,7.2,6.1,7.2,7.7c0,0.7-1.1,2-2.5,2.9
				c-3.7,2.5-13.5,1.5-20.8-2c-3.2-1.5-6-2.6-6.2-2.5c-0.5,0.6-0.7,3.2-0.6,8.4l0.1,5.1l5.3,2.1C-551.1-3.3-536.4-3.3-530.4-6.3
				L-530.4-6.3z M-746.1-78.7c1.7-3.7,1.4-5.2-1.3-7.9c-2-2-3.1-2.3-5.8-1.8c-6.1,1.1-8.6,6.6-5,11C-755-73.5-748.2-74.2-746.1-78.7
				z M-497.9-77.1c3.5-3.5,3.7-6.3,0.7-9c-2.3-2.2-3-2.4-6.8-2.1c-3.7,0.3-5,1.8-5,5.9c0,5,2.3,7.7,6.8,8
				C-501.4-74.2-499.5-75.5-497.9-77.1z M-109.2,520.8c-20.7-3.5-37.6-18.1-44.5-38.2c-1.7-5-1.8-22.2-2.1-371.8
				c-0.2-272.7,0-367.9,0.8-372c1.4-6.8,6.9-18.4,10.6-22.7c7.3-8.2,9.1-9.8,15.4-13.6c5.1-3.1,13.8-6.1,20.4-7.2
				c1.7-0.3,166.8-0.5,367-0.5c396.3,0,367.6-0.4,380.9,5.5c15.6,6.9,28,22.8,30.7,39.5c1.3,7.8,1.2,730.2-0.1,737
				c-1.1,5.6-5.6,16.6-7.7,18.8c-0.7,0.7-1.3,1.7-1.3,2.1c0,1.6-10.6,11.5-16.2,15.1c-3.2,2.1-8.7,4.9-12.1,6.1l-6.2,2.3L261,521.5
				C60,521.6-106.6,521.3-109.2,520.8L-109.2,520.8z M623.9,506.9c4.8-0.9,8-2.2,15.6-6.4c8.1-4.4,16.2-17.8,17.5-28.9
				c1.1-9.3,1.2-706.5,0.1-721.8c-0.7-10.1-1.2-12.4-4.1-18.2c-6.3-12.7-17.4-20.8-31.5-22.7c-9.2-1.3-714.8-1.4-726.1-0.1
				c-10.8,1.2-19.3,5.3-25.9,12.3c-5.7,6-7.9,9.7-10,16.5c-1.3,4.1-1.5,54-1.5,371.5c0,211.1,0.4,367.5,0.9,368.5
				c0.5,1,1.9,4.2,3.2,7.1c1.3,3,4.6,7.7,7.4,10.5c4.8,4.9,7.7,6.7,17,10.8c3.8,1.6,25.1,1.7,368.1,1.8
				C486.5,507.8,620.6,507.5,623.9,506.9L623.9,506.9z M231.2,391c-2.9-0.4-5.7-1.4-6.2-2.2c-1.2-1.9-1.3-559.9-0.1-561.8
				c1.8-2.9,38.4-4.1,54.6-1.8l8,1.1l0.3,281.1c0.2,254.5,0.1,281.2-1.3,282.4C284.7,391.4,240.6,392.3,231.2,391L231.2,391z
				 M194.5,384.8c-3.9-1-8.4-2.2-10-2.5s-3.7-0.9-4.5-1.2c-0.8-0.3-2.2-0.7-3-0.8c-2.5-0.4-21.1-7.1-28.9-10.4
				c-7.2-3-31.1-15-32.1-16.1c-0.8-0.8-4.3-3-6.6-3.9c-1.2-0.5-2.7-1.5-3.5-2.3c-0.8-0.8-3.5-2.6-6.1-4.1c-2.6-1.5-6-3.9-7.5-5.3
				c-1.5-1.4-3.9-3.3-5.3-4.2c-5.3-3.5-19.3-15.4-24.7-21.1l-4.3-4.5l0-200.5l0-200.5l9.3-8.7c5.1-4.8,9.6-8.7,10-8.7
				c0.4,0,2-1.2,3.5-2.7c4.5-4.3,18.1-14.4,19.2-14.4c0.6,0,1.1-0.3,1.1-0.8c0-0.4,2.1-2,4.8-3.5c2.6-1.5,5.6-3.3,6.7-4
				c7.1-4.4,9.7-5.7,10.6-5.2c0.6,0.4,1,77.9,1,214.7c0,126.8,0.4,214.4,0.9,214.7c0.5,0.3,4.8,0.4,9.5,0.2l8.6-0.3V68.9
				c0-203.2,0.1-219.9,1.7-221.2c0.9-0.8,1.9-1.3,2.3-1.2c0.3,0.1,1.9-0.4,3.6-1.1c7.3-3.2,16.5-6.6,22-8.1c3.3-0.9,6.9-2.1,8-2.5
				c2.5-1.1,20.3-4.9,22.7-4.9c1.7,0,1.8,11.2,1.8,278.5c0,264.6-0.1,278.5-1.8,278.4C202.3,386.7,198.4,385.8,194.5,384.8z
				 M307.2,273.1l0.3-113.7l30.4-0.3c17-0.1,30.8,0.1,31.3,0.6c0.5,0.5,0.8,27.4,0.8,62.4c-0.1,33.9,0.2,62.7,0.5,64.1
				c0.6,2.5,0.8,2.6,10,2.6h9.4l-0.3-74.2l-0.3-74.2l-40.4-0.3c-30.8-0.2-40.6-0.6-41.2-1.5c-0.9-1.4-1.1-305.7-0.3-308
				c0.7-1.8,2.9-1.5,19.2,2.4c7.4,1.8,33.2,10.4,39.8,13.4c18.2,8.1,34.7,16.9,38.1,20.3c1,1,2,1.7,2.3,1.6c1.1-0.3,5.6,2.4,7.5,4.5
				c1,1.1,2.2,1.9,2.5,1.7c0.4-0.2,2.5,1,4.8,2.8c2.2,1.8,5.1,3.9,6.3,4.7c1.2,0.8,4.1,3.2,6.4,5.2c2.3,2,4.5,3.7,4.9,3.8
				c0.4,0,4.8,4.1,9.8,9l9,9l0,74l0,74h-34h-34V-7.6v-64.5h-9.4h-9.4l-0.3,71.7c-0.2,39.5-0.2,72.9,0,74.2l0.3,2.5l41.4-0.3
				c27.8-0.2,42.1,0.1,43.4,0.8c2,1,2,2.4,2,115.8l0,114.7l-8.2,8.1c-4.5,4.4-10,9.4-12.2,11s-5.6,4.3-7.5,6.1
				c-10.8,9.8-41.2,27.9-61,36.2c-6.8,2.9-26,10.1-28,10.5c-0.8,0.2-2.2,0.6-3,0.9c-3.6,1.5-25.5,6.7-28.1,6.7H307L307.2,273.1
				L307.2,273.1z"/>
		</g>
	</g>
</g>
</svg>
